#!OML:ASF E:\emotionWalksFemale\Project 1\Capture day 1\Session 1\Female1.ASF
:FULLY-SPECIFIED
:DEGREES
1689
root 8.44712 14.8553 39.2024 3.87194 -201.291 364.184
lowerback 1.96251 -3.51471 3.15895
upperback -6.27106 -4.0642 2.36986
thorax -7.7188 -1.97657 1.0601
lowerneck 0.107988 9.61263 4.09603
upperneck 16.093 14.0756 -1.79821
head 5.26445 7.36195 -0.505706
rclavicle -8.13526e-014 2.46493e-014
rhumerus -34.0609 7.95737 -36.0951
rradius 36.7041
rwrist 17.5137
rhand -18.9375 -64.0422
rfingers 7.12502
rthumb 7.36549 1173.89
lclavicle -8.13526e-014 2.46493e-014
lhumerus 2.68828 16.0598 49.5024
lradius 38.1355
lwrist -37.2543
lhand -23.8169 -24.1701
lfingers 7.12502
lthumb 2.65422 5.79317
rfemur -5.31137 12.8946 27.4269
rtibia 31.0313
rfoot -28.2394 -26.2407
rtoes -2.00528
lfemur -12.3505 5.43213 -17.9781
ltibia 41.5941
lfoot -36.8823 21.567
ltoes -2.62813
1690
root 8.47171 14.8514 39.2405 3.61885 -201.276 364.163
lowerback 2.0589 -3.65459 3.07313
upperback -6.17526 -4.27358 2.30892
thorax -7.67092 -2.08179 1.06498
lowerneck 0.0989612 9.66899 4.55339
upperneck 16.2104 14.182 -2.03471
head 5.35627 7.4257 -0.630186
rclavicle -5.46658e-014 -1.78906e-014
rhumerus -35.1811 7.94413 -35.7264
rradius 37.1164
rwrist 17.0253
rhand -19.3853 -64.3138
rfingers 7.12502
rthumb 6.93318 1174.18
lclavicle -5.46658e-014 -1.78906e-014
lhumerus 1.53192 16.6 50.0618
lradius 38.8635
lwrist -36.7096
lhand -23.939 -24.8026
lfingers 7.12502
lthumb 2.53623 5.16205
rfemur -5.27869 12.763 27.5762
rtibia 31.1468
rfoot -28.0237 -26.2093
rtoes -1.41209
lfemur -12.2165 5.44055 -17.8131
ltibia 41.5768
lfoot -36.4994 21.5423
ltoes -2.65026
1691
root 8.49786 14.8555 39.2732 3.35278 -201.217 364.256
lowerback 2.19866 -3.85721 2.97282
upperback -6.07767 -4.55136 2.40049
thorax -7.63345 -2.21238 1.24632
lowerneck -0.0107683 9.80212 4.90089
upperneck 16.4227 14.4031 -2.27295
head 5.49228 7.53873 -0.722498
rclavicle -3.42407e-014 2.34566e-014
rhumerus -36.0119 7.64343 -35.171
rradius 37.3395
rwrist 16.8532
rhand -19.7968 -64.6015
rfingers 7.12502
rthumb 6.53597 1174.48
lclavicle -3.42407e-014 2.34566e-014
lhumerus 0.608229 17.3402 50.7735
lradius 38.8722
lwrist -36.0917
lhand -24.4496 -25.4594
lfingers 7.12502
lthumb 2.04319 4.51055
rfemur -5.02569 12.7655 27.9212
rtibia 31.1624
rfoot -28.2257 -26.5119
rtoes -1.34516
lfemur -12.0556 5.4969 -17.5046
ltibia 41.6473
lfoot -36.264 21.559
ltoes -4.00799
1692
root 8.52646 14.8604 39.3044 3.05946 -201.14 364.273
lowerback 2.33407 -4.07037 2.82281
upperback -5.98457 -4.85164 2.44247
thorax -7.59615 -2.35382 1.40561
lowerneck -0.0685247 9.98235 5.12307
upperneck 16.5487 14.6641 -2.36757
head 5.57588 7.67168 -0.757164
rclavicle -5.48149e-014 1.19271e-014
rhumerus -36.6853 6.82804 -34.4956
rradius 37.2682
rwrist 17.1063
rhand -20.0105 -64.2771
rfingers 7.12502
rthumb 6.32965 1174.16
lclavicle -5.48149e-014 1.19271e-014
lhumerus -0.495931 18.7077 51.6334
lradius 39.4356
lwrist -36.3183
lhand -25.0993 -25.9134
lfingers 7.12502
lthumb 1.41562 4.06162
rfemur -4.68144 12.8573 28.2128
rtibia 31.0681
rfoot -28.6007 -26.4637
rtoes -0.623437
lfemur -11.9025 5.57255 -17.2616
ltibia 41.79
lfoot -36.1219 21.5555
ltoes -3.7467
1693
root 8.555 14.8525 39.3395 2.80172 -201.289 364.273
lowerback 2.53277 -4.18517 2.64218
upperback -5.97544 -5.0146 2.4547
thorax -7.68416 -2.42482 1.54832
lowerneck 0.110082 10.1201 5.33602
upperneck 16.5911 14.8863 -2.47964
head 5.59376 7.79216 -0.815143
rclavicle -8.88567e-014 3.57812e-015
rhumerus -37.5467 6.3339 -33.8585
rradius 37.1972
rwrist 17.2859
rhand -19.8386 -63.8502
rfingers 7.12502
rthumb 6.49565 1173.73
lclavicle -8.88567e-014 3.57812e-015
lhumerus -1.68866 19.293 52.0969
lradius 39.5911
lwrist -36.0692
lhand -25.8384 -26.4453
lfingers 7.12502
lthumb 0.701841 3.53325
rfemur -4.47174 13.1567 28.4346
rtibia 30.9584
rfoot -28.3869 -26.2709
rtoes 0.0548077
lfemur -11.7561 6.09274 -17.006
ltibia 41.9488
lfoot -35.9867 21.2979
ltoes -3.38824
1694
root 8.58737 14.8401 39.3714 2.65678 -201.585 364.342
lowerback 2.51626 -4.21987 2.34649
upperback -5.93554 -5.07697 2.56764
thorax -7.59257 -2.43576 1.82983
lowerneck 0.354861 10.2288 5.46817
upperneck 16.4859 15.0659 -2.63681
head 5.55021 7.88366 -0.887298
rclavicle -7.07176e-014 -1.23246e-014
rhumerus -38.4567 6.223 -33.3291
rradius 37.1872
rwrist 17.1963
rhand -19.6812 -64.2104
rfingers 7.12502
rthumb 6.64758 1174.09
lclavicle -7.07176e-014 -1.23246e-014
lhumerus -2.84067 19.8427 52.5878
lradius 39.7767
lwrist -35.8612
lhand -26.2334 -27.0464
lfingers 7.12502
lthumb 0.320296 2.93315
rfemur -4.40822 13.5811 28.7204
rtibia 30.8166
rfoot -27.1679 -27.1029
rtoes -2.45825
lfemur -11.663 6.77653 -16.661
ltibia 42.1168
lfoot -35.8965 21.0319
ltoes -4.08496
1695
root 8.62198 14.8356 39.3991 2.45174 -201.886 364.295
lowerback 2.32323 -4.24802 1.97623
upperback -5.77241 -5.15563 2.64337
thorax -7.26109 -2.4582 2.0923
lowerneck 0.319333 10.3808 5.55515
upperneck 16.4534 15.2702 -2.70718
head 5.56759 7.97956 -0.905533
rclavicle -3.58309e-014 -3.10104e-014
rhumerus -39.2294 5.57015 -32.8016
rradius 37.0856
rwrist 17.4926
rhand -19.9557 -64.4866
rfingers 7.12502
rthumb 6.3826 1174.37
lclavicle -3.58309e-014 -3.10104e-014
lhumerus -3.56238 21.6309 53.4642
lradius 39.7391
lwrist -36.7182
lhand -26.762 -28.017
lfingers 7.12502
lthumb -0.190202 1.96262
rfemur -4.00775 13.9642 28.8833
rtibia 30.6272
rfoot -27.9823 -26.7095
rtoes 0.852598
lfemur -11.4875 7.33053 -16.4296
ltibia 42.2102
lfoot -35.9142 20.7143
ltoes -4.47486
